<?xml version="1.0" standalone="no"?>
<!DOCTYPE svg PUBLIC "-//W3C//DTD SVG 20010904//EN"
 "http://www.w3.org/TR/2001/REC-SVG-20010904/DTD/svg10.dtd">
<svg version="1.0" xmlns="http://www.w3.org/2000/svg"
 width="500.000000pt" height="500.000000pt" viewBox="0 0 500.000000 500.000000"
 preserveAspectRatio="xMidYMid meet">
<metadata>
Created by potrace 1.14, written by Peter Selinger 2001-2017
</metadata>
<g transform="translate(0.000000,500.000000) scale(0.100000,-0.100000)"
fill="#000000" stroke="none">
<path d="M2518 4493 c7 -3 16 -2 19 1 4 3 -2 6 -13 5 -11 0 -14 -3 -6 -6z"/>
<path d="M2590 4466 c0 -3 9 -10 20 -16 11 -6 20 -8 20 -6 0 3 -9 10 -20 16
-11 6 -20 8 -20 6z"/>
<path d="M2641 4436 c2 -2 15 -9 29 -15 24 -11 24 -11 6 3 -16 13 -49 24 -35
12z"/>
<path d="M2310 4309 c-415 -208 -673 -292 -1135 -369 -99 -17 -192 -33 -207
-36 l-28 -6 0 -131 c0 -143 23 -623 40 -832 24 -295 128 -698 261 -1014 77
-183 233 -443 392 -656 75 -99 304 -329 457 -456 117 -97 322 -232 372 -244
55 -14 249 102 436 261 341 288 582 593 777 984 128 256 244 637 295 969 21
134 45 518 56 892 l7 227 -54 11 c-30 6 -146 27 -259 46 -414 71 -654 152
-1062 356 -87 44 -166 78 -175 77 -10 -1 -88 -36 -173 -79z m-307 -554 c54 -8
157 -29 230 -47 116 -29 148 -32 262 -32 111 1 154 6 295 37 91 20 216 44 279
53 106 16 122 16 230 1 64 -10 168 -32 231 -50 l115 -33 3 -68 c2 -57 0 -72
-16 -90 -34 -36 -51 -80 -86 -223 -19 -76 -44 -164 -56 -195 -25 -67 -92 -145
-154 -182 -129 -76 -325 -74 -462 4 -109 63 -171 158 -239 366 -54 164 -70
184 -146 184 -64 0 -82 -19 -109 -112 -62 -215 -111 -308 -207 -399 -50 -46
-76 -62 -129 -79 -81 -25 -223 -27 -309 -5 -78 20 -161 71 -191 115 -29 44
-77 175 -104 283 -12 45 -25 98 -31 119 -5 20 -28 64 -50 98 -35 51 -42 72
-46 124 l-6 64 130 30 c117 28 198 43 288 56 42 6 163 -3 278 -19z m1730 -176
c126 -63 129 -147 7 -209 -40 -20 -152 -52 -159 -45 -12 13 35 140 65 177 22
25 34 51 34 69 0 35 0 35 53 8z m82 -335 c-21 -33 -115 -78 -204 -98 -40 -9
-75 -15 -78 -13 -4 4 34 148 39 151 2 1 39 12 83 25 44 12 100 35 125 51 l45
30 3 -61 c2 -43 -2 -68 -13 -85z m-11 -215 c-56 -59 -219 -108 -361 -109 l-62
0 47 48 c26 27 56 67 66 89 17 38 22 41 67 47 74 10 168 42 219 74 l45 28 3
-74 c3 -69 1 -77 -24 -103z m26 -98 c0 -72 -2 -80 -27 -106 -39 -39 -113 -71
-213 -91 -105 -21 -325 -15 -410 11 -70 22 -140 57 -163 82 -17 19 -16 20 85
20 77 0 118 5 163 20 43 15 98 22 190 26 72 3 157 13 189 22 69 19 146 56 165
79 8 9 15 16 17 16 2 0 4 -35 4 -79z m-740 -185 c95 -43 205 -59 364 -54 119
4 153 9 220 32 44 15 91 35 105 45 53 36 51 38 51 -47 0 -76 -1 -81 -32 -111
-141 -138 -664 -131 -783 11 -22 26 -25 39 -25 111 l0 80 23 -21 c12 -11 47
-32 77 -46z m-487 -365 c65 -28 141 -102 174 -170 24 -50 27 -71 32 -196 l6
-140 35 -5 c49 -8 88 -37 111 -81 17 -35 19 -61 19 -330 0 -272 -1 -296 -20
-334 -13 -26 -34 -49 -59 -63 -38 -22 -46 -22 -436 -22 -439 0 -443 0 -488 64
-21 30 -22 39 -25 341 -2 280 -1 313 15 344 23 44 62 72 110 80 l38 6 5 140
c4 118 9 148 28 190 39 84 126 162 215 191 58 19 179 12 240 -15z"/>
<path d="M1717 3724 c-227 -35 -288 -118 -258 -346 25 -186 73 -320 139 -386
63 -63 134 -86 272 -86 109 -1 118 1 182 31 130 61 203 157 268 350 55 165 51
258 -16 327 -105 108 -329 151 -587 110z"/>
<path d="M2925 3731 c-66 -15 -156 -49 -196 -75 -110 -73 -128 -178 -63 -371
72 -217 170 -327 328 -370 76 -21 198 -17 282 9 64 20 137 83 170 147 45 91
78 249 79 385 0 117 -1 122 -29 162 -53 77 -165 111 -386 117 -80 2 -163 0
-185 -4z m544 -117 c32 -41 44 -99 36 -184 -4 -41 -9 -86 -12 -99 l-6 -24
-126 6 c-160 6 -270 38 -331 96 -64 61 -47 117 49 166 80 40 178 61 298 64 66
1 73 -1 92 -25z m-392 -273 c71 -35 198 -61 306 -61 61 0 97 -4 97 -10 0 -31
-34 -139 -45 -144 -24 -9 -213 14 -277 34 -75 23 -142 65 -157 97 -6 13 -11
52 -11 85 l0 61 23 -20 c12 -11 41 -30 64 -42z m-56 -148 c34 -40 185 -85 332
-98 l77 -7 -33 -46 c-47 -65 -125 -106 -190 -98 -64 7 -162 52 -192 88 -22 26
-25 40 -25 104 0 75 7 87 31 57z m79 -252 l45 -21 -60 6 c-91 9 -95 11 -95 50
l0 35 33 -25 c18 -14 53 -34 77 -45z"/>
<path d="M2389 2377 c-99 -28 -169 -85 -216 -177 -26 -52 -27 -62 -28 -190 l0
-135 60 0 60 0 5 130 c5 136 10 153 57 197 96 92 248 69 311 -47 12 -21 18
-66 22 -155 l5 -125 60 0 60 0 0 130 c-1 118 -3 135 -26 185 -36 78 -81 125
-152 160 -73 35 -153 45 -218 27z"/>
<path d="M2420 2228 c-99 -28 -129 -86 -130 -246 l0 -112 173 2 172 3 0 120
c0 111 -2 123 -25 157 -43 63 -123 96 -190 76z"/>
<path d="M2042 1833 c-19 -9 -41 -32 -53 -54 -17 -35 -19 -61 -19 -327 0 -422
-38 -392 495 -392 418 0 423 1 469 63 20 27 21 41 21 331 0 335 0 335 -68 376
-30 19 -53 20 -422 20 -340 0 -394 -3 -423 -17z m478 -228 c61 -31 78 -116 36
-177 l-24 -36 19 -42 c10 -23 19 -48 19 -56 0 -23 -36 -34 -113 -34 -98 0
-108 10 -82 85 18 53 18 54 -4 81 -23 29 -29 101 -10 135 14 28 69 59 102 59
15 0 41 -7 57 -15z"/>
<path d="M2445 1591 c-75 -21 -95 -86 -49 -155 l27 -39 -21 -48 c-11 -26 -17
-50 -14 -53 10 -11 152 -6 152 4 0 6 -7 27 -15 47 -20 47 -19 63 5 88 12 12
23 38 26 57 10 59 -53 115 -111 99z"/>
<path d="M2740 4386 c0 -2 7 -7 16 -10 8 -3 12 -2 9 4 -6 10 -25 14 -25 6z"/>
<path d="M2790 4360 c8 -5 20 -10 25 -10 6 0 3 5 -5 10 -8 5 -19 10 -25 10 -5
0 -3 -5 5 -10z"/>
<path d="M2140 4320 c-8 -5 -10 -10 -5 -10 6 0 17 5 25 10 8 5 11 10 5 10 -5
0 -17 -5 -25 -10z"/>
<path d="M2930 4295 c14 -8 30 -14 35 -14 6 0 -1 6 -15 14 -14 8 -29 14 -35
14 -5 0 1 -6 15 -14z"/>
<path d="M3010 4260 c8 -5 20 -10 25 -10 6 0 3 5 -5 10 -8 5 -19 10 -25 10 -5
0 -3 -5 5 -10z"/>
<path d="M1638 4123 c7 -3 16 -2 19 1 4 3 -2 6 -13 5 -11 0 -14 -3 -6 -6z"/>
<path d="M3388 4123 c7 -3 16 -2 19 1 4 3 -2 6 -13 5 -11 0 -14 -3 -6 -6z"/>
<path d="M1538 4093 c7 -3 16 -2 19 1 4 3 -2 6 -13 5 -11 0 -14 -3 -6 -6z"/>
<path d="M3488 4093 c7 -3 16 -2 19 1 4 3 -2 6 -13 5 -11 0 -14 -3 -6 -6z"/>
<path d="M1498 4083 c7 -3 16 -2 19 1 4 3 -2 6 -13 5 -11 0 -14 -3 -6 -6z"/>
<path d="M3528 4083 c7 -3 16 -2 19 1 4 3 -2 6 -13 5 -11 0 -14 -3 -6 -6z"/>
<path d="M1458 4073 c7 -3 16 -2 19 1 4 3 -2 6 -13 5 -11 0 -14 -3 -6 -6z"/>
<path d="M3568 4073 c7 -3 16 -2 19 1 4 3 -2 6 -13 5 -11 0 -14 -3 -6 -6z"/>
<path d="M1408 4063 c7 -3 16 -2 19 1 4 3 -2 6 -13 5 -11 0 -14 -3 -6 -6z"/>
<path d="M3618 4063 c7 -3 16 -2 19 1 4 3 -2 6 -13 5 -11 0 -14 -3 -6 -6z"/>
<path d="M1358 4053 c6 -2 18 -2 25 0 6 3 1 5 -13 5 -14 0 -19 -2 -12 -5z"/>
<path d="M3658 4053 c6 -2 18 -2 25 0 6 3 1 5 -13 5 -14 0 -19 -2 -12 -5z"/>
<path d="M1308 4043 c6 -2 18 -2 25 0 6 3 1 5 -13 5 -14 0 -19 -2 -12 -5z"/>
<path d="M3708 4043 c6 -2 18 -2 25 0 6 3 1 5 -13 5 -14 0 -19 -2 -12 -5z"/>
<path d="M1258 4033 c6 -2 18 -2 25 0 6 3 1 5 -13 5 -14 0 -19 -2 -12 -5z"/>
<path d="M3768 4033 c7 -3 16 -2 19 1 4 3 -2 6 -13 5 -11 0 -14 -3 -6 -6z"/>
<path d="M1208 4023 c6 -2 18 -2 25 0 6 3 1 5 -13 5 -14 0 -19 -2 -12 -5z"/>
<path d="M3818 4023 c6 -2 18 -2 25 0 6 3 1 5 -13 5 -14 0 -19 -2 -12 -5z"/>
<path d="M1148 4013 c6 -2 18 -2 25 0 6 3 1 5 -13 5 -14 0 -19 -2 -12 -5z"/>
<path d="M3878 4013 c7 -3 16 -2 19 1 4 3 -2 6 -13 5 -11 0 -14 -3 -6 -6z"/>
<path d="M1088 4003 c6 -2 18 -2 25 0 6 3 1 5 -13 5 -14 0 -19 -2 -12 -5z"/>
<path d="M3928 4003 c6 -2 18 -2 25 0 6 3 1 5 -13 5 -14 0 -19 -2 -12 -5z"/>
<path d="M1028 3993 c7 -3 16 -2 19 1 4 3 -2 6 -13 5 -11 0 -14 -3 -6 -6z"/>
<path d="M3993 3993 c9 -2 23 -2 30 0 6 3 -1 5 -18 5 -16 0 -22 -2 -12 -5z"/>
<path d="M968 3983 c6 -2 18 -2 25 0 6 3 1 5 -13 5 -14 0 -19 -2 -12 -5z"/>
<path d="M4058 3983 c6 -2 18 -2 25 0 6 3 1 5 -13 5 -14 0 -19 -2 -12 -5z"/>
<path d="M908 3973 c6 -2 18 -2 25 0 6 3 1 5 -13 5 -14 0 -19 -2 -12 -5z"/>
<path d="M4118 3973 c6 -2 18 -2 25 0 6 3 1 5 -13 5 -14 0 -19 -2 -12 -5z"/>
<path d="M858 3963 c7 -3 16 -2 19 1 4 3 -2 6 -13 5 -11 0 -14 -3 -6 -6z"/>
<path d="M4172 3964 c15 -5 18 -21 21 -107 l3 -102 0 105 c-1 97 -2 105 -21
107 -15 1 -16 1 -3 -3z"/>
<path d="M831 3794 c0 -11 3 -14 6 -6 3 7 2 16 -1 19 -3 4 -6 -2 -5 -13z"/>
<path d="M843 3590 c0 -41 2 -58 4 -37 2 20 2 54 0 75 -2 20 -4 3 -4 -38z"/>
<path d="M4184 3565 c0 -49 1 -71 3 -48 2 23 2 64 0 90 -2 26 -3 8 -3 -42z"/>
<path d="M853 3385 c0 -38 2 -53 4 -32 2 20 2 52 0 70 -2 17 -4 1 -4 -38z"/>
<path d="M4173 3350 c0 -41 2 -58 4 -37 2 20 2 54 0 75 -2 20 -4 3 -4 -38z"/>
<path d="M863 3195 c0 -38 2 -53 4 -32 2 20 2 52 0 70 -2 17 -4 1 -4 -38z"/>
<path d="M4162 3200 c0 -14 2 -19 5 -12 2 6 2 18 0 25 -3 6 -5 1 -5 -13z"/>
<path d="M4163 3125 c0 -27 2 -38 4 -22 2 15 2 37 0 50 -2 12 -4 0 -4 -28z"/>
<path d="M873 3025 c0 -33 2 -45 4 -27 2 18 2 45 0 60 -2 15 -4 0 -4 -33z"/>
<path d="M4153 2975 c0 -33 2 -45 4 -27 2 18 2 45 0 60 -2 15 -4 0 -4 -33z"/>
<path d="M883 2880 c0 -25 2 -35 4 -22 2 12 2 32 0 45 -2 12 -4 2 -4 -23z"/>
<path d="M4141 2844 c0 -11 3 -14 6 -6 3 7 2 16 -1 19 -3 4 -6 -2 -5 -13z"/>
<path d="M892 2785 c0 -16 2 -22 5 -12 2 9 2 23 0 30 -3 6 -5 -1 -5 -18z"/>
<path d="M4132 2780 c0 -14 2 -19 5 -12 2 6 2 18 0 25 -3 6 -5 1 -5 -13z"/>
<path d="M902 2720 c0 -14 2 -19 5 -12 2 6 2 18 0 25 -3 6 -5 1 -5 -13z"/>
<path d="M4122 2715 c0 -16 2 -22 5 -12 2 9 2 23 0 30 -3 6 -5 -1 -5 -18z"/>
<path d="M912 2660 c0 -14 2 -19 5 -12 2 6 2 18 0 25 -3 6 -5 1 -5 -13z"/>
<path d="M4112 2650 c0 -14 2 -19 5 -12 2 6 2 18 0 25 -3 6 -5 1 -5 -13z"/>
<path d="M921 2614 c0 -11 3 -14 6 -6 3 7 2 16 -1 19 -3 4 -6 -2 -5 -13z"/>
<path d="M4101 2604 c0 -11 3 -14 6 -6 3 7 2 16 -1 19 -3 4 -6 -2 -5 -13z"/>
<path d="M931 2564 c0 -11 3 -14 6 -6 3 7 2 16 -1 19 -3 4 -6 -2 -5 -13z"/>
<path d="M4091 2554 c0 -11 3 -14 6 -6 3 7 2 16 -1 19 -3 4 -6 -2 -5 -13z"/>
<path d="M941 2514 c0 -11 3 -14 6 -6 3 7 2 16 -1 19 -3 4 -6 -2 -5 -13z"/>
<path d="M4081 2504 c0 -11 3 -14 6 -6 3 7 2 16 -1 19 -3 4 -6 -2 -5 -13z"/>
<path d="M951 2474 c0 -11 3 -14 6 -6 3 7 2 16 -1 19 -3 4 -6 -2 -5 -13z"/>
<path d="M4071 2464 c0 -11 3 -14 6 -6 3 7 2 16 -1 19 -3 4 -6 -2 -5 -13z"/>
<path d="M961 2434 c0 -11 3 -14 6 -6 3 7 2 16 -1 19 -3 4 -6 -2 -5 -13z"/>
<path d="M971 2394 c0 -11 3 -14 6 -6 3 7 2 16 -1 19 -3 4 -6 -2 -5 -13z"/>
<path d="M981 2354 c0 -11 3 -14 6 -6 3 7 2 16 -1 19 -3 4 -6 -2 -5 -13z"/>
<path d="M991 2314 c0 -11 3 -14 6 -6 3 7 2 16 -1 19 -3 4 -6 -2 -5 -13z"/>
<path d="M4031 2304 c0 -11 3 -14 6 -6 3 7 2 16 -1 19 -3 4 -6 -2 -5 -13z"/>
<path d="M1001 2274 c0 -11 3 -14 6 -6 3 7 2 16 -1 19 -3 4 -6 -2 -5 -13z"/>
<path d="M4021 2264 c0 -11 3 -14 6 -6 3 7 2 16 -1 19 -3 4 -6 -2 -5 -13z"/>
<path d="M1011 2234 c0 -11 3 -14 6 -6 3 7 2 16 -1 19 -3 4 -6 -2 -5 -13z"/>
<path d="M1051 2104 c0 -11 3 -14 6 -6 3 7 2 16 -1 19 -3 4 -6 -2 -5 -13z"/>
<path d="M1060 2075 c0 -5 5 -17 10 -25 5 -8 10 -10 10 -5 0 6 -5 17 -10 25
-5 8 -10 11 -10 5z"/>
<path d="M3926 1975 c-9 -26 -7 -32 5 -12 6 10 9 21 6 23 -2 3 -7 -2 -11 -11z"/>
<path d="M1190 1741 c0 -6 4 -13 10 -16 6 -3 7 1 4 9 -7 18 -14 21 -14 7z"/>
<path d="M1210 1704 c0 -6 7 -19 16 -30 14 -18 14 -18 3 6 -14 31 -19 36 -19
24z"/>
<path d="M3792 1665 c-12 -25 -20 -45 -17 -45 7 0 47 81 43 86 -3 2 -14 -17
-26 -41z"/>
<path d="M3725 1540 c-9 -16 -13 -30 -11 -30 3 0 12 14 21 30 9 17 13 30 11
30 -3 0 -12 -13 -21 -30z"/>
<path d="M1320 1500 c6 -11 13 -20 16 -20 2 0 0 9 -6 20 -6 11 -13 20 -16 20
-2 0 0 -9 6 -20z"/>
<path d="M3439 1103 c-13 -16 -12 -17 4 -4 9 7 17 15 17 17 0 8 -8 3 -21 -13z"/>
<path d="M1615 1060 c10 -11 20 -20 23 -20 3 0 -3 9 -13 20 -10 11 -20 20 -23
20 -3 0 3 -9 13 -20z"/>
<path d="M3404 1058 l-19 -23 23 19 c21 18 27 26 19 26 -2 0 -12 -10 -23 -22z"/>
<path d="M1670 995 c13 -14 26 -25 28 -25 3 0 -5 11 -18 25 -13 14 -26 25 -28
25 -3 0 5 -11 18 -25z"/>
<path d="M3344 988 l-19 -23 23 19 c21 18 27 26 19 26 -2 0 -12 -10 -23 -22z"/>
<path d="M1765 890 c10 -11 20 -20 23 -20 3 0 -3 9 -13 20 -10 11 -20 20 -23
20 -3 0 3 -9 13 -20z"/>
<path d="M3210 843 l-65 -68 68 65 c62 60 72 70 64 70 -1 0 -32 -30 -67 -67z"/>
<path d="M1830 825 c19 -19 36 -35 39 -35 3 0 -10 16 -29 35 -19 19 -36 35
-39 35 -3 0 10 -16 29 -35z"/>
<path d="M1920 745 c13 -14 26 -25 28 -25 3 0 -5 11 -18 25 -13 14 -26 25 -28
25 -3 0 5 -11 18 -25z"/>
<path d="M3069 713 l-24 -28 28 24 c25 23 32 31 24 31 -2 0 -14 -12 -28 -27z"/>
<path d="M2025 650 c10 -11 20 -20 23 -20 3 0 -3 9 -13 20 -10 11 -20 20 -23
20 -3 0 3 -9 13 -20z"/>
<path d="M2984 638 l-29 -33 33 29 c30 28 37 36 29 36 -2 0 -16 -15 -33 -32z"/>
<path d="M2090 595 c13 -14 26 -25 28 -25 3 0 -5 11 -18 25 -13 14 -26 25 -28
25 -3 0 5 -11 18 -25z"/>
<path d="M2909 573 c-13 -16 -12 -17 4 -4 16 13 21 21 13 21 -2 0 -10 -8 -17
-17z"/>
<path d="M2150 546 c0 -2 8 -10 18 -17 15 -13 16 -12 3 4 -13 16 -21 21 -21
13z"/>
<path d="M2859 533 c-13 -16 -12 -17 4 -4 16 13 21 21 13 21 -2 0 -10 -8 -17
-17z"/>
<path d="M2590 365 c-25 -13 -41 -24 -37 -25 11 0 87 39 87 45 0 7 0 7 -50
-20z"/>
</g>
</svg>
